<?xml version="1.0" encoding="UTF-8" standalone="no"?>
<!-- Generator: Adobe Illustrator 19.0.0, SVG Export Plug-In . SVG Version: 6.00 Build 0)  -->

<svg
   xmlns:dc="http://purl.org/dc/elements/1.1/"
   xmlns:cc="http://creativecommons.org/ns#"
   xmlns:rdf="http://www.w3.org/1999/02/22-rdf-syntax-ns#"
   xmlns:svg="http://www.w3.org/2000/svg"
   xmlns="http://www.w3.org/2000/svg"
   xmlns:sodipodi="http://sodipodi.sourceforge.net/DTD/sodipodi-0.dtd"
   xmlns:inkscape="http://www.inkscape.org/namespaces/inkscape"
   version="1.1"
   id="Layer_1"
   x="0px"
   y="0px"
   viewBox="0 0 512 512"
   style="enable-background:new 0 0 512 512;"
   xml:space="preserve"
   sodipodi:docname="phone.svg"
   inkscape:version="0.92.4 5da689c313, 2019-01-14"><metadata
   id="metadata43"><rdf:RDF><cc:Work
       rdf:about=""><dc:format>image/svg+xml</dc:format><dc:type
         rdf:resource="http://purl.org/dc/dcmitype/StillImage" /><dc:title></dc:title></cc:Work></rdf:RDF></metadata><defs
   id="defs41" /><sodipodi:namedview
   pagecolor="#ffffff"
   bordercolor="#666666"
   borderopacity="1"
   objecttolerance="10"
   gridtolerance="10"
   guidetolerance="10"
   inkscape:pageopacity="0"
   inkscape:pageshadow="2"
   inkscape:window-width="1366"
   inkscape:window-height="744"
   id="namedview39"
   showgrid="false"
   inkscape:zoom="0.4609375"
   inkscape:cx="256"
   inkscape:cy="213.41039"
   inkscape:window-x="0"
   inkscape:window-y="24"
   inkscape:window-maximized="1"
   inkscape:current-layer="Layer_1" />
<path
   style="fill:#ededed"
   d="M 512,512 384,476.69 C 344.276,499.641 300.138,512 254.234,512 114.759,512 0,397.241 0,256.883 0,116.525 114.759,0 254.234,0 393.709,0 512,116.524 512,256.883 c 0,44.138 -14.124,86.51 -35.31,124.469 z"
   id="path2"
   inkscape:connector-curvature="0" />

<path
   style="fill:#FEFEFE;"
   d="M187.145,135.945l-16.772-0.883c-5.297,0-10.593,1.766-14.124,5.297  c-7.945,7.062-21.186,20.303-24.717,37.959c-6.179,26.483,3.531,58.262,26.483,90.041s67.09,82.979,144.772,105.048  c24.717,7.062,44.138,2.648,60.028-7.062c12.359-7.945,20.303-20.303,22.952-33.545l2.648-12.359  c0.883-3.531-0.883-7.945-4.414-9.71l-55.614-25.6c-3.531-1.766-7.945-0.883-10.593,2.648l-22.069,28.248  c-1.766,1.766-4.414,2.648-7.062,1.766c-15.007-5.297-65.324-26.483-92.69-79.448c-0.883-2.648-0.883-5.297,0.883-7.062  l21.186-23.834c1.766-2.648,2.648-6.179,1.766-8.828l-25.6-57.379C193.324,138.593,190.676,135.945,187.145,135.945"
   id="path6" />
<g
   id="g8">
</g>
<g
   id="g10">
</g>
<g
   id="g12">
</g>
<g
   id="g14">
</g>
<g
   id="g16">
</g>
<g
   id="g18">
</g>
<g
   id="g20">
</g>
<g
   id="g22">
</g>
<g
   id="g24">
</g>
<g
   id="g26">
</g>
<g
   id="g28">
</g>
<g
   id="g30">
</g>
<g
   id="g32">
</g>
<g
   id="g34">
</g>
<g
   id="g36">
</g>
<style
   id="style5277"
   type="text/css">
	.st0{fill:#77B3D4;}
	.st1{opacity:0.2;}
	.st2{fill:#231F20;}
	.st3{fill:#FFFFFF;}
</style><g
   id="g5316"
   transform="matrix(-6.6949152,0,0,6.6949152,472.47457,38.664289)"><g
     id="Layer_1-6">
	<g
   id="g5281">
		<circle
   id="circle5279"
   r="32"
   cy="32"
   cx="32"
   class="st0"
   style="fill:#77b3d4" />
	</g>
	<g
   id="g5287"
   class="st1"
   style="opacity:0.2">
		<g
   id="g5285">
			<path
   id="path5283"
   d="M 29,25.3 C 28.6,20.5 23.6,18.2 23.4,18.1 23.1,18 22.9,18 22.7,18 c -5.8,1 -6.6,4.3 -6.7,4.5 0,0.2 0,0.4 0,0.6 6.9,21.4 21.2,25.3 25.9,26.6 0.4,0.1 0.7,0.2 0.9,0.3 0.1,0 0.2,0.1 0.3,0.1 0.2,0 0.3,0 0.5,-0.1 0.1,-0.1 3.5,-1.7 4.4,-6.9 0,-0.2 0,-0.5 -0.1,-0.7 -0.1,-0.1 -1.9,-3.5 -6.8,-4.7 -0.3,-0.1 -0.7,0 -1,0.2 -1.6,1.3 -3.7,2.7 -4.6,2.9 -6.2,-3 -9.7,-8.9 -9.8,-10 C 25.6,30.2 27,28 28.7,26.2 28.9,26 29,25.6 29,25.3 Z"
   class="st2"
   inkscape:connector-curvature="0"
   style="fill:#231f20" />
		</g>
	</g>
	<g
   id="g5293">
		<g
   id="g5291">
			<path
   id="path5289"
   d="M 29,23.3 C 28.6,18.5 23.6,16.2 23.4,16.1 23.1,16 22.9,16 22.7,16 c -5.8,1 -6.6,4.3 -6.7,4.5 0,0.2 0,0.4 0,0.6 6.9,21.4 21.2,25.3 25.9,26.6 0.4,0.1 0.7,0.2 0.9,0.3 0.1,0 0.2,0.1 0.3,0.1 0.2,0 0.3,0 0.5,-0.1 0.1,-0.1 3.5,-1.7 4.4,-6.9 0,-0.2 0,-0.5 -0.1,-0.7 -0.1,-0.1 -1.9,-3.5 -6.8,-4.7 -0.3,-0.1 -0.7,0 -1,0.2 -1.6,1.3 -3.7,2.7 -4.6,2.9 -6.2,-3 -9.7,-8.9 -9.8,-10 C 25.6,28.2 27,26 28.7,24.2 28.9,24 29,23.6 29,23.3 Z"
   class="st3"
   inkscape:connector-curvature="0"
   style="fill:#ffffff" />
		</g>
	</g>
</g><g
     id="Layer_2">
</g></g></svg>